<?xml version="1.0" encoding="UTF-8" standalone="no"?>
<!-- Created with Inkscape (http://www.inkscape.org/) -->
<svg
   xmlns:dc="http://purl.org/dc/elements/1.1/"
   xmlns:cc="http://web.resource.org/cc/"
   xmlns:rdf="http://www.w3.org/1999/02/22-rdf-syntax-ns#"
   xmlns:svg="http://www.w3.org/2000/svg"
   xmlns="http://www.w3.org/2000/svg"
   xmlns:sodipodi="http://sodipodi.sourceforge.net/DTD/sodipodi-0.dtd"
   xmlns:inkscape="http://www.inkscape.org/namespaces/inkscape"
   width="601"
   height="301"
   id="svg2"
   sodipodi:version="0.32"
   inkscape:version="0.44"
   version="1.0"
   sodipodi:docbase="C:\Documents and Settings\ltljltlj\Desktop\Signs\Auxiliary Plates"
   sodipodi:docname="End plate green (Outline).svg">
  <defs
     id="defs4" />
  <sodipodi:namedview
     id="base"
     pagecolor="#ffffff"
     bordercolor="#666666"
     borderopacity="1.0"
     gridtolerance="10000"
     guidetolerance="10"
     objecttolerance="10"
     inkscape:pageopacity="0.0"
     inkscape:pageshadow="2"
     inkscape:zoom="1.9916667"
     inkscape:cx="300.00001"
     inkscape:cy="150"
     inkscape:document-units="px"
     inkscape:current-layer="layer1"
     width="601px"
     height="301px"
     inkscape:window-width="1280"
     inkscape:window-height="968"
     inkscape:window-x="-4"
     inkscape:window-y="-4" />
  <metadata
     id="metadata7">
    <rdf:RDF>
      <cc:Work
         rdf:about="">
        <dc:format>image/svg+xml</dc:format>
        <dc:type
           rdf:resource="http://purl.org/dc/dcmitype/StillImage" />
      </cc:Work>
    </rdf:RDF>
  </metadata>
  <g
     inkscape:label="Layer 1"
     inkscape:groupmode="layer"
     id="layer1">
    <path
       style="color:black;fill:white;fill-opacity:1;fill-rule:nonzero;stroke:black;stroke-width:1;stroke-linecap:butt;stroke-linejoin:miter;marker:none;marker-start:none;marker-mid:none;marker-end:none;stroke-miterlimit:4;stroke-dashoffset:0;stroke-opacity:1;visibility:visible;display:inline;overflow:visible"
       d="M 37.999844,0.5 L 563.00016,0.5 C 583.77507,0.5 600.5,17.22486 600.5,37.999687 L 600.5,263.00031 C 600.5,283.77514 583.77507,300.5 563.00016,300.5 L 37.999844,300.5 C 17.22493,300.5 0.5,283.77514 0.5,263.00031 L 0.5,37.999687 C 0.5,17.22486 17.22493,0.5 37.999844,0.5 z "
       id="rect1872" />
    <path
       style="color:black;fill:#006b54;fill-opacity:1;fill-rule:nonzero;stroke:none;stroke-width:0.8735441;stroke-linecap:butt;stroke-linejoin:miter;marker:none;marker-start:none;marker-mid:none;marker-end:none;stroke-miterlimit:4;stroke-dashoffset:0;stroke-opacity:1;visibility:visible;display:inline;overflow:visible"
       d="M 38,13 L 563,13 C 576.85,13 588,24.15 588,38 L 588,263 C 588,276.85 576.85,288 563,288 L 38,288 C 24.15,288 13,276.85 13,263 L 13,38 C 13,24.15 24.15,13 38,13 z "
       id="rect2766" />
    <g
       id="g2000"
       inkscape:label="Layer 1"
       transform="translate(2.760247,-286.551)">
      <g
         id="g1981"
         inkscape:label="Layer 1"
         transform="translate(18.60837,25.64935)">
        <g
           id="g1980"
           inkscape:label="Layer 1"
           transform="translate(-1.508784,-1.005909)">
          <g
             id="g1945"
             inkscape:label="Layer 1"
             transform="translate(6.038078,9.055714)">
            <g
               id="g2029"
               inkscape:label="Layer 1"
               transform="translate(-9.052727,-1.005922)">
              <g
                 id="g2086"
                 inkscape:label="Layer 1"
                 transform="translate(-17.60251,-18.10539)" />
            </g>
          </g>
        </g>
      </g>
    </g>
    <g
       id="g3725"
       inkscape:label="Layer 1"
       transform="translate(1.391822,323.2113)"
       inkscape:transform-center-y="-150"
       inkscape:transform-center-x="-7.0410042">
      <path
         id="text2768"
         d="M 124.10818,-97.7113 L 124.10818,-247.71135 L 212.03125,-247.71135 L 212.03125,-223.97643 L 147.70559,-223.97643 L 147.70559,-187.26041 L 191.11012,-187.26041 L 191.11012,-163.08139 L 147.70559,-163.08139 L 147.70559,-121.89031 L 216.70454,-121.89031 L 216.70454,-97.7113 L 124.10818,-97.7113 z M 322.49206,-97.7113 L 265.51595,-199.35333 L 265.51595,-97.7113 L 241.91856,-97.7113 L 241.91856,-247.71135 L 265.51595,-247.71135 L 319.82257,-151.89032 L 319.82257,-247.71135 L 343.41997,-247.71135 L 343.41997,-97.7113 L 322.49206,-97.7113 z M 480.35822,-172.93337 C 480.3581,-157.85701 478.09505,-144.61061 473.56905,-133.19411 C 469.04283,-121.77755 462.55027,-112.7853 454.09135,-106.21734 C 451.27007,-103.53002 447.96776,-101.51566 444.18438,-100.17429 C 440.40084,-98.83291 436.58002,-98.01191 432.72192,-97.7113 L 424.26516,-97.7113 L 378.85682,-97.7113 L 378.85682,-247.71135 L 426.93465,-247.71135 C 430.64785,-247.7112 433.87658,-247.59847 436.62086,-247.37315 C 439.36497,-247.14754 441.84992,-246.73648 444.07571,-246.13995 C 446.30132,-245.54313 448.30399,-244.72213 450.08374,-243.67696 C 451.8633,-242.63149 453.79239,-241.36413 455.87101,-239.87486 C 463.7367,-233.00613 469.78435,-223.86357 474.01396,-212.44716 C 478.24336,-201.03052 480.3581,-187.85926 480.35822,-172.93337 L 480.35822,-172.93337 z M 456.31931,-172.93337 C 456.31921,-183.08131 455.2426,-192.11114 453.08944,-200.02288 C 450.93611,-207.9344 448.00511,-213.83055 444.29646,-217.71133 C 442.36729,-219.50124 440.14159,-220.99292 437.61936,-222.1864 C 435.09698,-223.37962 432.27806,-223.9763 429.1626,-223.97643 L 402.45421,-223.97643 L 402.45421,-121.89031 L 426.04482,-121.89031 C 429.90293,-121.89028 433.13053,-122.33779 435.72763,-123.23283 C 438.32458,-124.12781 440.66236,-125.62064 442.74096,-127.71131 C 447.19228,-132.18861 450.56818,-138.34552 452.86868,-146.18205 C 455.16901,-154.01848 456.31921,-162.93558 456.31931,-172.93337 L 456.31931,-172.93337 z "
         style="font-size:223.22659302px;font-style:normal;font-variant:normal;font-weight:normal;font-stretch:normal;text-align:center;line-height:125%;writing-mode:lr-tb;text-anchor:middle;fill:white;fill-opacity:1;font-family:Roadgeek 2005 Series D" />
    </g>
  </g>
</svg>
